<svg xmlns="http://www.w3.org/2000/svg" width="210mm" height="297mm" viewBox="0 0 794 1123" xmlns:c2pa="http://c2pa.org/manifest"><metadata><c2pa:manifest>AAAWgmp1bWIAAAAeanVtZGMycGEAEQAQgAAAqgA4m3EDYzJwYQAAABZcanVtYgAAAEdqdW1kYzJtYQARABCAAACqADibcQN1cm46YzJwYTpkNWEzN2RmYi04Y2NlLTRjMWUtOWMwZS0yOGVkNDE1Y2IyNWYAAAADl2p1bWIAAAApanVtZGMyYXMAEQAQgAAAqgA4m3EDYzJwYS5hc3NlcnRpb25zAAAAALxqdW1iAAAARGp1bWRjYm9yABEAEIAAAKoAOJtxE2MycGEuaW5ncmVkaWVudC52MwAAAAAYYzJzaChvvywQnUnNceORnWLNbEkAAABwY2JvcqNpZGM6Zm9ybWF0bWltYWdlL3N2Zyt4bWxqaW5zdGFuY2VJRHgseG1wOmlpZDoxOWJkMDMwYy1hNjgyLTQyOGMtYWI4ZC0yNzkxOTIyZjhjYTJscmVsYXRpb25zaGlwaHBhcmVudE9mAAAB4mp1bWIAAABBanVtZGNib3IAEQAQgAAAqgA4m3ETYzJwYS5hY3Rpb25zLnYyAAAAABhjMnNoDvpJ82Zk6AQOK/L/GqCAsAAAAZljYm9yomdhY3Rpb25zgqJmYWN0aW9ua2MycGEub3BlbmVkanBhcmFtZXRlcnOha2luZ3JlZGllbnRzgaJjdXJseC1zZWxmI2p1bWJmPWMycGEuYXNzZXJ0aW9ucy9jMnBhLmluZ3JlZGllbnQudjNkaGFzaFgg6/42425HSaQjz1uRyaQ4hPFk0dLP6a07jp7sEv7tvLGkZmFjdGlvbngdY29tLmFudGhyb3BpYy5jbGF1ZGUucHJvdmlkZWRqcGFyYW1ldGVyc6F4H2NvbS5hbnRocm9waWMub3JpZ2luLWNvbmZpZGVuY2VndW5rbm93bmtkZXNjcmlwdGlvbnhmQ2xhdWRlIHByb3ZpZGVkIHRoaXMgZmlsZSBhdCB0aGUgcmVxdWVzdCBvZiBhIHVzZXIgYW5kIG1heSBoYXZlIGNyZWF0ZWQgb3IgbW9kaWZpZWQgdGhlIGZpbGUgY29udGVudHMubXNvZnR3YXJlQWdlbnShZG5hbWVmQ2xhdWRlcmFsbEFjdGlvbnNJbmNsdWRlZPUAAADIanVtYgAAAEBqdW1kY2JvcgARABCAAACqADibcRNjMnBhLmhhc2guZGF0YQAAAAAYYzJzaOl8yELgNfphcMhPfLV+3RIAAACAY2JvcqVjYWxnZnNoYTI1NmNwYWRNAAAAAAAAAAAAAAAAAGRoYXNoWCBpI+WbQQ8JPTw6o0JD9IJJHS24yTCNBFOytRJ1ZI1hhmRuYW1lbmp1bWJmIG1hbmlmZXN0amV4Y2x1c2lvbnOBomVzdGFydBibZmxlbmd0aBkeBAAAAj5qdW1iAAAAJ2p1bWRjMmNsABEAEIAAAKoAOJtxA2MycGEuY2xhaW0udjIAAAACD2Nib3KlY2FsZ2ZzaGEyNTZpc2lnbmF0dXJleE1zZWxmI2p1bWJmPS9jMnBhL3VybjpjMnBhOmQ1YTM3ZGZiLThjY2UtNGMxZS05YzBlLTI4ZWQ0MTVjYjI1Zi9jMnBhLnNpZ25hdHVyZWppbnN0YW5jZUlEeCx4bXA6aWlkOjQyZWNhYTM0LWMzMWItNDIwOS04ZjAxLTUzZDkzZDc4NGZlYXJjcmVhdGVkX2Fzc2VydGlvbnODomN1cmx4LXNlbGYjanVtYmY9YzJwYS5hc3NlcnRpb25zL2MycGEuaW5ncmVkaWVudC52M2RoYXNoWCDr/jbjbkdJpCPPW5HJpDiE8WTR0s/prTuOnuwS/u28saJjdXJseCpzZWxmI2p1bWJmPWMycGEuYXNzZXJ0aW9ucy9jMnBhLmFjdGlvbnMudjJkaGFzaFgglOJVSP1agU0wittCvIPjYY4ccb+qlEDO8rHIqZF4Jf2iY3VybHgpc2VsZiNqdW1iZj1jMnBhLmFzc2VydGlvbnMvYzJwYS5oYXNoLmRhdGFkaGFzaFggIwgOH4zm5qn6O24mPOuJzJ/PSyUL/0Rql5LQtOPa2Nd0Y2xhaW1fZ2VuZXJhdG9yX2luZm+jZG5hbWVvQW50aHJvcGljIEZpbGVzZ3ZlcnNpb25lMS4wLjBrc3BlY1ZlcnNpb25lMi40LjAAABA4anVtYgAAAChqdW1kYzJjcwARABCAAACqADibcQNjMnBhLnNpZ25hdHVyZQAAABAIY2JvctKEWQISogEmGCFZAgowggIGMIIBjaADAgECAhRA5aAK7sI50L64g/oGQgU9Z1UTADAKBggqhkjOPQQDAzBJMRcwFQYDVQQKEw5BbnRocm9waWMsIFBCQzEuMCwGA1UEAxMlQW50aHJvcGljIENvbnRlbnQgQ3JlZGVudGlhbHMgUm9vdCBDQTAeFw0yNjA4MDcxODQzNTZaFw0yODA4MDYxOTQzNTZaMEQxFzAVBgNVBAoTDkFudGhyb3BpYywgUEJDMSkwJwYDVQQDEyBBbnRocm9waWMgQ2xhdWRlIENvbnRlbnQgU2lnbmluZzBZMBMGByqGSM49AgEGCCqGSM49AwEHA0IABJh6CmvLUBgFFNU0vUKlOVtE6djd17L5SuwX0LemFisBM3dkd/3cyjxFA3Qo5S46fX0/ihY0VZ7mfb9KF703t5OjWDBWMA4GA1UdDwEB/wQEAwIHgDAVBgNVHSUEDjAMBgorBgEEAYPoXgIBMAwGA1UdEwEB/wQCMAAwHwYDVR0jBBgwFoAUzlHiBIFOZFsj+OPEz5o+nMHXXMIwCgYIKoZIzj0EAwMDZwAwZAIwMXMdFJ4BetLLVY7ORuE9noqbbAZOZn/aArXyTwFAZfKrPzxF2vPoJNf1+UCdg1XGAjBwX1zd9WGqYkqmL5SFqw1QySjr1zJfpJM9+1rdDwSPLMOPOjKuiXjoU/pUUeG9RwmhY3BhZFkNngAAAAAAAAAAAAAAAAAAAAAAAAAAAAAAAAAAAAAAAAAAAAAAAAAAAAAAAAAAAAAAAAAAAAAAAAAAAAAAAAAAAAAAAAAAAAAAAAAAAAAAAAAAAAAAAAAAAAAAAAAAAAAAAAAAAAAAAAAAAAAAAAAAAAAAAAAAAAAAAAAAAAAAAAAAAAAAAAAAAAAAAAAAAAAAAAAAAAAAAAAAAAAAAAAAAAAAAAAAAAAAAAAAAAAAAAAAAAAAAAAAAAAAAAAAAAAAAAAAAAAAAAAAAAAAAAAAAAAAAAAAAAAAAAAAAAAAAAAAAAAAAAAAAAAAAAAAAAAAAAAAAAAAAAAAAAAAAAAAAAAAAAAAAAAAAAAAAAAAAAAAAAAAAAAAAAAAAAAAAAAAAAAAAAAAAAAAAAAAAAAAAAAAAAAAAAAAAAAAAAAAAAAAAAAAAAAAAAAAAAAAAAAAAAAAAAAAAAAAAAAAAAAAAAAAAAAAAAAAAAAAAAAAAAAAAAAAAAAAAAAAAAAAAAAAAAAAAAAAAAAAAAAAAAAAAAAAAAAAAAAAAAAAAAAAAAAAAAAAAAAAAAAAAAAAAAAAAAAAAAAAAAAAAAAAAAAAAAAAAAAAAAAAAAAAAAAAAAAAAAAAAAAAAAAAAAAAAAAAAAAAAAAAAAAAAAAAAAAAAAAAAAAAAAAAAAAAAAAAAAAAAAAAAAAAAAAAAAAAAAAAAAAAAAAAAAAAAAAAAAAAAAAAAAAAAAAAAAAAAAAAAAAAAAAAAAAAAAAAAAAAAAAAAAAAAAAAAAAAAAAAAAAAAAAAAAAAAAAAAAAAAAAAAAAAAAAAAAAAAAAAAAAAAAAAAAAAAAAAAAAAAAAAAAAAAAAAAAAAAAAAAAAAAAAAAAAAAAAAAAAAAAAAAAAAAAAAAAAAAAAAAAAAAAAAAAAAAAAAAAAAAAAAAAAAAAAAAAAAAAAAAAAAAAAAAAAAAAAAAAAAAAAAAAAAAAAAAAAAAAAAAAAAAAAAAAAAAAAAAAAAAAAAAAAAAAAAAAAAAAAAAAAAAAAAAAAAAAAAAAAAAAAAAAAAAAAAAAAAAAAAAAAAAAAAAAAAAAAAAAAAAAAAAAAAAAAAAAAAAAAAAAAAAAAAAAAAAAAAAAAAAAAAAAAAAAAAAAAAAAAAAAAAAAAAAAAAAAAAAAAAAAAAAAAAAAAAAAAAAAAAAAAAAAAAAAAAAAAAAAAAAAAAAAAAAAAAAAAAAAAAAAAAAAAAAAAAAAAAAAAAAAAAAAAAAAAAAAAAAAAAAAAAAAAAAAAAAAAAAAAAAAAAAAAAAAAAAAAAAAAAAAAAAAAAAAAAAAAAAAAAAAAAAAAAAAAAAAAAAAAAAAAAAAAAAAAAAAAAAAAAAAAAAAAAAAAAAAAAAAAAAAAAAAAAAAAAAAAAAAAAAAAAAAAAAAAAAAAAAAAAAAAAAAAAAAAAAAAAAAAAAAAAAAAAAAAAAAAAAAAAAAAAAAAAAAAAAAAAAAAAAAAAAAAAAAAAAAAAAAAAAAAAAAAAAAAAAAAAAAAAAAAAAAAAAAAAAAAAAAAAAAAAAAAAAAAAAAAAAAAAAAAAAAAAAAAAAAAAAAAAAAAAAAAAAAAAAAAAAAAAAAAAAAAAAAAAAAAAAAAAAAAAAAAAAAAAAAAAAAAAAAAAAAAAAAAAAAAAAAAAAAAAAAAAAAAAAAAAAAAAAAAAAAAAAAAAAAAAAAAAAAAAAAAAAAAAAAAAAAAAAAAAAAAAAAAAAAAAAAAAAAAAAAAAAAAAAAAAAAAAAAAAAAAAAAAAAAAAAAAAAAAAAAAAAAAAAAAAAAAAAAAAAAAAAAAAAAAAAAAAAAAAAAAAAAAAAAAAAAAAAAAAAAAAAAAAAAAAAAAAAAAAAAAAAAAAAAAAAAAAAAAAAAAAAAAAAAAAAAAAAAAAAAAAAAAAAAAAAAAAAAAAAAAAAAAAAAAAAAAAAAAAAAAAAAAAAAAAAAAAAAAAAAAAAAAAAAAAAAAAAAAAAAAAAAAAAAAAAAAAAAAAAAAAAAAAAAAAAAAAAAAAAAAAAAAAAAAAAAAAAAAAAAAAAAAAAAAAAAAAAAAAAAAAAAAAAAAAAAAAAAAAAAAAAAAAAAAAAAAAAAAAAAAAAAAAAAAAAAAAAAAAAAAAAAAAAAAAAAAAAAAAAAAAAAAAAAAAAAAAAAAAAAAAAAAAAAAAAAAAAAAAAAAAAAAAAAAAAAAAAAAAAAAAAAAAAAAAAAAAAAAAAAAAAAAAAAAAAAAAAAAAAAAAAAAAAAAAAAAAAAAAAAAAAAAAAAAAAAAAAAAAAAAAAAAAAAAAAAAAAAAAAAAAAAAAAAAAAAAAAAAAAAAAAAAAAAAAAAAAAAAAAAAAAAAAAAAAAAAAAAAAAAAAAAAAAAAAAAAAAAAAAAAAAAAAAAAAAAAAAAAAAAAAAAAAAAAAAAAAAAAAAAAAAAAAAAAAAAAAAAAAAAAAAAAAAAAAAAAAAAAAAAAAAAAAAAAAAAAAAAAAAAAAAAAAAAAAAAAAAAAAAAAAAAAAAAAAAAAAAAAAAAAAAAAAAAAAAAAAAAAAAAAAAAAAAAAAAAAAAAAAAAAAAAAAAAAAAAAAAAAAAAAAAAAAAAAAAAAAAAAAAAAAAAAAAAAAAAAAAAAAAAAAAAAAAAAAAAAAAAAAAAAAAAAAAAAAAAAAAAAAAAAAAAAAAAAAAAAAAAAAAAAAAAAAAAAAAAAAAAAAAAAAAAAAAAAAAAAAAAAAAAAAAAAAAAAAAAAAAAAAAAAAAAAAAAAAAAAAAAAAAAAAAAAAAAAAAAAAAAAAAAAAAAAAAAAAAAAAAAAAAAAAAAAAAAAAAAAAAAAAAAAAAAAAAAAAAAAAAAAAAAAAAAAAAAAAAAAAAAAAAAAAAAAAAAAAAAAAAAAAAAAAAAAAAAAAAAAAAAAAAAAAAAAAAAAAAAAAAAAAAAAAAAAAAAAAAAAAAAAAAAAAAAAAAAAAAAAAAAAAAAAAAAAAAAAAAAAAAAAAAAAAAAAAAAAAAAAAAAAAAAAAAAAAAAAAAAAAAAAAAAAAAAAAAAAAAAAAAAAAAAAAAAAAAAAAAAAAAAAAAAAAAAAAAAAAAAAAAAAAAAAAAAAAAAAAAAAAAAAAAAAAAAAAAAAAAAAAAAAAAAAAAAAAAAAAAAAAAAAAAAAAAAAAAAAAAAAAAAAAAAAAAAAAAAAAAAAAAAAAAAAAAAAAAAAAAAAAAAAAAAAAAAAAAAAAAAAAAAAAAAAAAAAAAAAAAAAAAAAAAAAAAAAAAAAAAAAAAAAAAAAAAAAAAAAAAAAAAAAAAAAAAAAAAAAAAAAAAAAAAAAAAAAAAAAAAAAAAAAAAAAAAAAAAAAAAAAAAAAAAAAAAAAAAAAAAAAAAAAAAAAAAAAAAAAAAAAAAAAAAAAAAAAAAAAAAAAAAAAAAAAAAAAAAAAAAAAAAAAAAAAAAAAAAAAAAAAAAAAAAAAAAAAAAAAAAAAAAAAAAAAAAAAAAAAAAAAAAAAAAAAAAAAAAAAAAAAAAAAAAAAAAAAAAAAAAAAAAAAAAAAAAAAAAAAAAAAAAAAAAAAAAAAAAAAAAAAAAAAAAAAAAAAAAAAAAAAAAAAAAAAAAAAAAAAAAAAAAAAAAAAAAAAAAAAAAAAAAAAAAAAAAAAAAAAAAAAAAAAAAAAAAAAAAAAAAAAAAAAAAAAAAAAAAAAAAAAAAAAAAAAAAAAAAAAAAAAAAAAAAAAAAAAAAAAAAAAAAAAAAAAAAAAAAAAAAAAAAAAAAAAAAAAAAAAAAAAAAAAAAAAAAAAAAAAAAAAAAAAAAAAAAAAAAAAAAAAAAAAAAAAAAAAAAAAAAAAAAAAAAAAAAAAAAAAAAAAAAAAAAAAAAAAAAAAAAAAAAAAAAAAAAAAAAAAAAAAAAAAAAAAAAAAAAAAAAAAAAAAAAAAAAAAAAAAAAAAAAAAAAAAAAAAAAAAAAAAAAAAAAAAAAAAAAAAAAAAAAAAAAAAAAAAAAAAAAAAAAAAAAAAAAAAAAAAAAAAAAAAAAAAAAAAAAAAAAAAAAAAAAAAAAAAAAAAAAAAAAAAAAAAAAAAAAAAAAAAAAAAAAAAAAAAAAAAAAAAAAAAAAAAAAAAAAAAAAAAAAAAAAAAAAAAAAAAAAAAAAAAAAAAAAAAAAAAAAAAAAAAAAAAAAAAAAAAAAAAAAAAAAAAAAAAAAAAAAAAAAAAAAAAAAAAAAAAAAAAAAAAAAAAAAAAAAAAAAAAAAAAAAAAAAAAAAAAAAAAAAAAAAAAAAAAAAAAAAAAAAAAAAAAAAAAAAAAAAAAAAAAAAAAAAAAAAAAAAAAAAAAAAAAAAAAAAAAAAAAAAAAAAAAAAAAAAAAAAAAAAAAAAAAAAAAAAAAAAAAAAAAAAAAAAAAAAAAAAAAAAAAAAAAAAAAAAAAAAAAAAAAAAAAAAAAAAAAAAAAAAAAAAAAAAAAAAAAAAAAAAAAAAAAAAAAAAAAAAAAAAAAAAAAAAAAAAAAAAAAAAAAAAAAAAAAAAAAAAAAAAAAAAAAAAAAAAAAAAAAAAAAAAAAAAAAAAAAAAAAAAAAAAAAAAAAAAAAAAAAAAAAAAAAAAAAAAAAAAAAAAAAAAAAAAAAAAAAAAAAAAAAAAAAAAAAAAAAAAAAAAAAAAAAAAAAAAAAAAAAAAAAAAPZYQLrmqp0UVHWRuuA6FwebF47utu3NazTZHb/f8iM6wj4/PbHKfWExdHVl7xW7vQgXu7uHofJJ4FGCqP4DTwFPkvE=</c2pa:manifest></metadata>
  <title>MCP Study Notes — Canonical Cover Template</title>
  <desc>Immutable A4 cover composition for the MCP AI Engineering Roadmap study-notes series.</desc>
  <defs>
    <style>
      .sans { font-family: 'Liberation Sans', Arial, sans-serif; }
      .serif { font-family: 'Liberation Serif', 'DejaVu Serif', serif; }
    </style>
  </defs>
  <rect x="0" y="0" width="794" height="1123" fill="#F7F0EC"/>

  <!-- FIXED LEFT SERIES RAIL -->
  <rect x="0" y="0" width="136" height="1123" fill="#5C193C"/>
  <path d="M 0 1032 C 48 1057, 78 1091, 102 1123 L 0 1123 Z" fill="#742B54"/>
  <path d="M 0 1072 C 36 1088, 53 1105, 68 1123 L 0 1123 Z" fill="#8E406A"/>

  <!-- wordmark: MCP -->
  <text x="68" y="105" class="sans" text-anchor="middle" font-size="30" font-weight="700" fill="#FFFFFF" letter-spacing="1.2">MCP</text>
  <line x1="68" y1="220" x2="68" y2="245" stroke="#E5CBD7" stroke-width="1.4"/>

  <!-- side navigation icons (reduced scale) -->
  <g fill="none" stroke="#F8EAF0" stroke-width="1.9" stroke-linecap="round" stroke-linejoin="round">
    <g transform="translate(68,332) scale(0.82) translate(-68,-332)">
      <path d="M 46 314 Q 57 306 68 314 Q 79 306 90 314 L 90 350 Q 79 342 68 350 Q 57 342 46 350 Z"/>
      <line x1="68" y1="314" x2="68" y2="350"/>
    </g>
    <g transform="translate(68,442) scale(0.82) translate(-68,-442)">
      <circle cx="68" cy="442" r="11"/><circle cx="68" cy="442" r="4"/>
      <path d="M68 423 v-6 M68 467 v-6 M49 442 h-6 M93 442 h-6 M55 429 l-4 -4 M85 459 l-4 -4 M81 429 l4 -4 M51 459 l4 -4"/>
    </g>
    <g transform="translate(68,560) scale(0.82) translate(-68,-560)">
      <path d="M54 560 l8 -8 c7 -7 16 -7 22 -1 l2 2 c6 6 6 15 -1 22 l-8 8"/>
      <path d="M82 552 l-8 8 c-7 7 -16 7 -22 1 l-2 -2 c-6 -6 -6 -15 1 -22 l8 -8"/>
    </g>
    <g transform="translate(68,675) scale(0.82) translate(-68,-675)">
      <circle cx="54" cy="674" r="4"/><circle cx="83" cy="657" r="4"/><circle cx="84" cy="693" r="4"/>
      <line x1="58" y1="672" x2="79" y2="660"/><line x1="58" y1="676" x2="80" y2="690"/>
    </g>
  </g>
  <text x="68" y="373" class="sans" text-anchor="middle" font-size="8.8" font-weight="700" fill="#FFFFFF" letter-spacing="1.5">LEARN</text>
  <text x="68" y="501" class="sans" text-anchor="middle" font-size="8.8" font-weight="700" fill="#FFFFFF" letter-spacing="1.5">BUILD</text>
  <text x="68" y="619" class="sans" text-anchor="middle" font-size="8.8" font-weight="700" fill="#FFFFFF" letter-spacing="1.5">INTEGRATE</text>
  <text x="68" y="747" class="sans" text-anchor="middle" font-size="8.8" font-weight="700" fill="#FFFFFF" letter-spacing="1.5">EXTEND</text>

  <!-- dot field -->
  <g fill="#DAB8C8" opacity="0.86">
    <circle cx="28" cy="910" r="2"/><circle cx="44" cy="910" r="2"/><circle cx="60" cy="910" r="2"/><circle cx="76" cy="910" r="2"/>
    <circle cx="28" cy="927" r="2"/><circle cx="44" cy="927" r="2"/><circle cx="60" cy="927" r="2"/><circle cx="76" cy="927" r="2"/>
    <circle cx="28" cy="944" r="2"/><circle cx="44" cy="944" r="2"/><circle cx="60" cy="944" r="2"/><circle cx="76" cy="944" r="2"/>
    <circle cx="28" cy="961" r="2"/><circle cx="44" cy="961" r="2"/><circle cx="60" cy="961" r="2"/><circle cx="76" cy="961" r="2"/>
    <circle cx="28" cy="978" r="2"/><circle cx="44" cy="978" r="2"/><circle cx="60" cy="978" r="2"/><circle cx="76" cy="978" r="2"/>
    <circle cx="28" cy="995" r="2"/><circle cx="44" cy="995" r="2"/><circle cx="60" cy="995" r="2"/><circle cx="76" cy="995" r="2"/>
  </g>

  <!-- MAIN AREA -->
  <path d="M 794 0 L 794 260 C 751 206, 707 171, 665 158 C 626 146, 603 113, 603 71 C 603 42, 613 19, 625 0 Z" fill="#EAD6DF"/>
  <path d="M 794 0 L 794 226 C 752 177, 720 151, 684 141 C 650 131, 630 105, 630 73 C 630 43, 640 17, 650 0 Z" fill="#F1E3E8"/>

  <text x="168" y="64" class="sans" font-size="10.2" font-weight="700" fill="#2B252B" letter-spacing="3.2">AI ENGINEERING ROADMAP · STUDY NOTES</text>
  <text x="723" y="65" class="sans" text-anchor="middle" font-size="8.5" font-weight="700" fill="#6B1F46" letter-spacing="2.4">BUILD</text>
  <text x="723" y="83" class="sans" text-anchor="middle" font-size="8.5" font-weight="700" fill="#6B1F46" letter-spacing="2.4">CONNECT</text>
  <text x="723" y="101" class="sans" text-anchor="middle" font-size="8.5" font-weight="700" fill="#6B1F46" letter-spacing="2.4">EXTEND</text>
  <line x1="697" y1="122" x2="749" y2="122" stroke="#7D3F68" stroke-width="2.2"/>

  <text x="168" y="176" class="sans" font-size="16" font-weight="700" fill="#8B4267" letter-spacing="1.7">CHAPTER {{CHAPTER_NUM}}</text>
  <line x1="168" y1="193" x2="280" y2="193" stroke="#8B4267" stroke-width="2.2"/>

  <text x="168" y="272" class="sans" font-size="42" font-weight="700" fill="#2C282D">{{TITLE_LINE_1}}</text>
  <text x="168" y="342" class="sans" font-size="42" font-weight="700" fill="#6A2148">{{TITLE_LINE_2}}</text>
  <text x="168" y="412" class="sans" font-size="42" font-weight="700" fill="#6A2148">{{TITLE_LINE_3}}</text>
  <line x1="168" y1="441" x2="294" y2="441" stroke="#8E466A" stroke-width="2.1"/>

  <text x="168" y="488" class="serif" font-size="14.4" fill="#51464F">{{SUBTITLE_LINE_1}}</text>
  <text x="168" y="513" class="serif" font-size="14.4" fill="#51464F">{{SUBTITLE_LINE_2}}</text>
  <text x="168" y="538" class="serif" font-size="14.4" fill="#51464F">{{SUBTITLE_LINE_3}}</text>

  <!-- FIXED MCP ARCHITECTURE -->
  <g id="mcp-cover-diagram">
    <rect x="168" y="602" width="223" height="178" rx="13" fill="#EFDDE4" stroke="#D5B9C6" stroke-width="1.2"/>
    <text x="279.5" y="629" class="sans" text-anchor="middle" font-size="14.5" font-weight="700" fill="#672047">Host / Client</text>
    <rect x="182" y="645" width="195" height="49" rx="10" fill="#FBF8F5"/>
    <circle cx="203" cy="669.5" r="7.5" fill="none" stroke="#6F2C54" stroke-width="2"/>
    <circle cx="203" cy="669.5" r="1.6" fill="#6F2C54"/><circle cx="196.5" cy="669.5" r="1.6" fill="#6F2C54"/><circle cx="209.5" cy="669.5" r="1.6" fill="#6F2C54"/>
    <text x="221" y="675" class="sans" font-size="10.4" fill="#443844">LLM Application</text>
    <rect x="182" y="704" width="195" height="26" rx="7" fill="#FBF8F5"/>
    <rect x="195" y="712" width="15" height="10" rx="1.5" fill="none" stroke="#6F2C54" stroke-width="1.7"/>
    <line x1="197" y1="725" x2="208" y2="725" stroke="#6F2C54" stroke-width="1.7"/>
    <text x="221" y="722.5" class="sans" font-size="10.1" fill="#443844">Development Tool</text>
    <rect x="182" y="738" width="195" height="27" rx="7" fill="#FBF8F5"/>
    <rect x="194" y="745" width="14" height="14" rx="2" fill="none" stroke="#6F2C54" stroke-width="1.7"/>
    <rect x="212" y="745" width="14" height="14" rx="2" fill="none" stroke="#6F2C54" stroke-width="1.7"/>
    <text x="236" y="756.5" class="sans" font-size="10.1" fill="#443844">Custom Client</text>

    <rect x="418" y="632" width="132" height="151" rx="17" fill="#651D43"/>
    <g transform="translate(454,655)">
      <path d="M 2 29 C 7 10, 12 4, 18 18 L 24 31 C 27 37, 32 37, 36 31 L 43 17 C 47 9, 52 11, 56 27" fill="none" stroke="#F7F0EC" stroke-width="6.4" stroke-linecap="round" stroke-linejoin="round"/>
      <path d="M 4 33 C 9 14, 14 10, 20 22 L 26 35 C 29 41, 34 41, 38 34 L 45 21 C 49 14, 53 16, 56 30" fill="none" stroke="#D7A8BC" stroke-width="2.2" stroke-linecap="round" stroke-linejoin="round" opacity="0.9"/>
    </g>
    <text x="484" y="724" class="sans" text-anchor="middle" font-size="19" font-weight="700" fill="#FFFFFF" letter-spacing="1.3">MCP</text>
    <text x="484" y="749" class="sans" text-anchor="middle" font-size="7.7" font-weight="700" fill="#F4E6EE" letter-spacing="1.4">MODEL CONTEXT</text>
    <text x="484" y="763" class="sans" text-anchor="middle" font-size="7.7" font-weight="700" fill="#F4E6EE" letter-spacing="1.4">PROTOCOL</text>

    <rect x="574" y="602" width="196" height="183" rx="13" fill="#EFDDE4" stroke="#D5B9C6" stroke-width="1.2"/>
    <text x="672" y="629" class="sans" text-anchor="middle" font-size="14.5" font-weight="700" fill="#672047">MCP Server</text>
    <rect x="586" y="645" width="172" height="41" rx="9" fill="#FBF8F5"/>
    <circle cx="605" cy="665.5" r="8.2" fill="none" stroke="#6F2C54" stroke-width="1.8"/>
    <path d="M598 663 h14 M600 659 h10 M600 672 h10" stroke="#6F2C54" stroke-width="1.4"/>
    <text x="621" y="663" class="sans" font-size="9.7" font-weight="700" fill="#443844">Resources</text>
    <text x="621" y="676" class="sans" font-size="8.2" fill="#6E5C68">(Data, Files, APIs)</text>
    <rect x="586" y="692" width="172" height="41" rx="9" fill="#FBF8F5"/>
    <path d="M599 708 l8 -8 l9 9 l-8 8 z M603 704 l7 7" fill="none" stroke="#6F2C54" stroke-width="1.8" stroke-linecap="round" stroke-linejoin="round"/>
    <text x="621" y="710" class="sans" font-size="9.7" font-weight="700" fill="#443844">Tools</text>
    <text x="621" y="723" class="sans" font-size="8.2" fill="#6E5C68">(Actions, Functions)</text>
    <rect x="586" y="739" width="172" height="34" rx="9" fill="#FBF8F5"/>
    <rect x="599" y="746" width="11" height="15" rx="1" fill="none" stroke="#6F2C54" stroke-width="1.7"/>
    <line x1="602" y1="751" x2="608" y2="751" stroke="#6F2C54" stroke-width="1.2"/>
    <line x1="602" y1="755" x2="608" y2="755" stroke="#6F2C54" stroke-width="1.2"/>
    <text x="621" y="754" class="sans" font-size="9.7" font-weight="700" fill="#443844">Prompts</text>
    <text x="621" y="766" class="sans" font-size="8.2" fill="#6E5C68">(Templates, Workflows)</text>

    <line x1="391" y1="665" x2="418" y2="665" stroke="#793155" stroke-width="2.2"/>
    <path d="M 399 659 L 391 665 L 399 671 M 410 659 L 418 665 L 410 671" fill="none" stroke="#793155" stroke-width="2"/>
    <line x1="391" y1="727" x2="418" y2="727" stroke="#793155" stroke-width="2.2"/>
    <path d="M 399 721 L 391 727 L 399 733 M 410 721 L 418 727 L 410 733" fill="none" stroke="#793155" stroke-width="2"/>

    <line x1="550" y1="708" x2="574" y2="708" stroke="#793155" stroke-width="2.2"/>
    <line x1="561" y1="708" x2="561" y2="759" stroke="#793155" stroke-width="2.2"/>
    <line x1="561" y1="759" x2="574" y2="759" stroke="#793155" stroke-width="2.2"/>
    <line x1="561" y1="708" x2="561" y2="665" stroke="#793155" stroke-width="2.2"/>
    <line x1="561" y1="665" x2="574" y2="665" stroke="#793155" stroke-width="2.2"/>
    <path d="M 569 659 L 574 665 L 569 671 M 569 753 L 574 759 L 569 765 M 569 702 L 574 708 L 569 714" fill="none" stroke="#793155" stroke-width="2"/>
  </g>

  <line x1="484" y1="783" x2="484" y2="828" stroke="#9E667F" stroke-width="1.6" stroke-dasharray="5 4"/>
  <rect x="357" y="829" width="254" height="54" rx="12" fill="#F4E7EB" stroke="#D8B8C5" stroke-width="1.2"/>
  <text x="484" y="852" class="sans" text-anchor="middle" font-size="10.7" fill="#4B3441">A standard interface</text>
  <text x="484" y="869" class="sans" text-anchor="middle" font-size="10.7" fill="#4B3441">for a more capable AI ecosystem.</text>

  <line x1="168" y1="933" x2="740" y2="933" stroke="#C8A9B6" stroke-width="1.2"/>
  <text x="168" y="973" class="serif" font-size="18" fill="#3D323A">Premium Revision Notes</text>
  <line x1="168" y1="996" x2="168" y2="1058" stroke="#C9A8B7" stroke-width="1.2"/>
  <line x1="309" y1="996" x2="309" y2="1058" stroke="#C9A8B7" stroke-width="1.2"/>
  <line x1="458" y1="996" x2="458" y2="1058" stroke="#C9A8B7" stroke-width="1.2"/>
  <line x1="603" y1="996" x2="603" y2="1058" stroke="#C9A8B7" stroke-width="1.2"/>
  <text x="186" y="1017" class="sans" font-size="8.6" font-weight="700" fill="#7C345A" letter-spacing="1.2">CONCEPTS</text>
  <text x="186" y="1036" class="sans" font-size="9.2" fill="#5B4D57">Clear Explanations</text>
  <text x="328" y="1017" class="sans" font-size="8.6" font-weight="700" fill="#7C345A" letter-spacing="1.2">IMPLEMENTATION</text>
  <text x="328" y="1036" class="sans" font-size="9.2" fill="#5B4D57">Practical Code</text>
  <text x="477" y="1017" class="sans" font-size="8.6" font-weight="700" fill="#7C345A" letter-spacing="1.2">DIAGRAMS</text>
  <text x="477" y="1036" class="sans" font-size="9.2" fill="#5B4D57">Visual Learning</text>
  <text x="622" y="1017" class="sans" font-size="8.6" font-weight="700" fill="#7C345A" letter-spacing="1.2">INTERVIEW PREP</text>
  <text x="622" y="1036" class="sans" font-size="9.2" fill="#5B4D57">Key Questions</text>
  <text x="168" y="1090" class="sans" font-size="7.8" fill="#6F5D68" letter-spacing="2">AI ENGINEERING ROADMAP</text>
  <line x1="168" y1="1080" x2="194" y2="1080" stroke="#8D456B" stroke-width="2"/>
  <text x="739" y="1090" class="sans" text-anchor="end" font-size="8.4" fill="#7A365C" letter-spacing="3">SMARTER AI · BIGGER POSSIBILITIES</text>
  <line x1="700" y1="1102" x2="739" y2="1102" stroke="#8D456B" stroke-width="2"/>
</svg>
